<svg xmlns="http://www.w3.org/2000/svg" width="889.4" height="141" viewBox="0 0 889.4 141">
  <defs>
    <style>
      .cls-1 {
        fill: #01d676;
      }

      .cls-1, .cls-2 {
        fill-rule: evenodd;
      }

      .cls-2 {
        fill: #fff;
      }
    </style>
  </defs>
  <path id="Shape_42_copy_6" data-name="Shape 42 copy 6" class="cls-1" d="M13164.8,1190.28v-27.65s0.2-6.72-9.2-.84c-3.5,2.05-8.7,4.87-8.6,17.46v10.52s0.2,22.73-25.6,22.73h-2.5v5.59a4.557,4.557,0,0,1-4.8,4.58h-9s-4.4-.1-4.4-4.24v-5.93h-18.6s-8.8-.04-8.8-9.33a8.747,8.747,0,0,1,8.8-8.82h38.1s8.7,0.34,8.7-9.16c0-4.8-2.3-9.67-9.4-9.67h-81s-9.8-.14-10.7,16.12c-0.2,5.2.1,9.55,2.9,12.38s23.6,23.74,23.6,23.74,4.4,4.24,15.7,4.24h57.5s37.3,0.69,37.3-36.8v-4.92Zm-110.1-57.56v27.65s-0.2,6.72,9.2.84c3.5-2.05,8.8-4.87,8.6-17.46v-10.52s-0.2-22.73,25.6-22.73h2.6v-5.59a4.443,4.443,0,0,1,4.7-4.58h9s4.4,0.1,4.4,4.24v5.93h18.7s8.8,0.04,8.8,9.33a8.747,8.747,0,0,1-8.8,8.82h-38.2s-8.6-.34-8.6,9.16c0,4.8,2.2,9.67,9.3,9.67h81s9.8,0.14,10.7-16.12c0.2-5.2-.1-9.55-2.9-12.38-2.7-2.82-23.5-23.74-23.5-23.74s-4.5-4.24-15.8-4.24H13092s-37.3-.69-37.3,36.8v4.92Z" transform="translate(-13027.8 -1091)"/>
  <path id="FREE" class="cls-1" d="M13295.6,1118.04h-62.5l-16.8,86.37h22.9l6-30.72h36l3.9-20.36h-36l3-14.93h39.5Zm1.6,86.37h22.9l5.5-28.13h9.9l15.2,28.13h25.8l-17.8-31.34c10.3-3.82,18.9-11.6,21.7-25.91,4.4-22.83-12.3-29.12-29.9-29.12H13314Zm32-46.64,3.9-19.99h14.6c6.5,0,10.3,3.33,9,10s-6.4,9.99-12.9,9.99h-14.6Zm141.3-39.73h-62.3l-16.8,86.37h63.1l3.8-19.74h-40.2l2.7-14.07h35.8l3.8-19.62h-35.8l2.6-13.2h39.5Zm82.5,0h-62.3l-16.8,86.37h63.1l3.8-19.74h-40.2l2.7-14.07h35.8l3.8-19.62h-35.7l2.5-13.2h39.5Z" transform="translate(-13027.8 -1091)"/>
  <path id="CASH" class="cls-2" d="M13559.1,1162.46c-6,30.85,15.1,43.8,38.9,43.8a66.228,66.228,0,0,0,26.3-5.43l4.3-22.21c-5.9,4.81-14.6,7.53-23.5,7.53-13.5,0-25.7-6.91-22.5-23.69,3.7-18.76,18.8-26.28,32.5-26.28,7.9,0,15.3,2.59,19.8,7.03l4.2-21.59a52.708,52.708,0,0,0-24.1-5.43C13591.6,1116.19,13565.5,1129.89,13559.1,1162.46Zm75.2,41.95h23.5l7.6-13.57h35.9l2.3,13.57h23.5l-17.2-86.37h-24.7Zm41.5-32.08,13.8-24.92a54.4,54.4,0,0,0,3.9-8.76,37.023,37.023,0,0,0,.6,8.76l4,24.92h-22.3Zm72.8-30.72c-6,30.84,39.9,26.65,37.4,39.11-0.8,4.32-4.9,5.8-14,5.8-9.9,0-20.7-2.71-29.6-9.75l-4.2,21.59c8.2,5.06,19.2,7.9,31.7,7.9,19,0,35.8-5.92,39.8-26.4,6-30.6-39.7-27.15-37.6-38.38,0.7-3.2,3.7-5.43,12.1-5.55,10.1-.12,19.3,2.59,25.7,8.14l4-20.97c-6.7-4.32-16.9-6.91-27.7-6.91C13768.4,1116.19,13752,1124.33,13748.6,1141.61Zm168.6-23.57h-22.8l-6.5,33.07h-32.1l6.4-33.07h-22.9l-16.8,86.37h22.9l6.4-32.94h32.2l-6.5,32.94h22.9Z" transform="translate(-13027.8 -1091)"/>
</svg>
